<svg width="15" height="16" viewBox="0 0 15 16" fill="none" xmlns="http://www.w3.org/2000/svg">
<mask id="mask0_0_871" style="mask-type:alpha" maskUnits="userSpaceOnUse" x="-3" y="-2" width="21" height="21">
<rect x="-2.8594" y="-1.34417" width="20.2035" height="20.2035" fill="#D9D9D9"/>
</mask>
<g mask="url(#mask0_0_871)">
<path d="M3.20668 12.7933H4.72195L9.67766 7.83759L8.1624 6.32232L3.20668 11.278V12.7933ZM10.3932 7.12204L11.1508 6.36441C11.2631 6.25217 11.3192 6.13291 11.3192 6.00664C11.3192 5.88037 11.2631 5.76111 11.1508 5.64887L10.3511 4.84915C10.2389 4.7369 10.1196 4.68078 9.99334 4.68078C9.86707 4.68078 9.74782 4.7369 9.63557 4.84915L8.87794 5.60678L10.3932 7.12204ZM1.74679 16C1.26642 16 0.855199 15.8289 0.513128 15.4869C0.171043 15.1448 0 14.7336 0 14.2532V3.26205C0 2.78168 0.171043 2.37046 0.513128 2.02839C0.855199 1.68631 1.26642 1.51527 1.74679 1.51527H5.17945C5.31518 1.07362 5.57032 0.710666 5.94487 0.4264C6.31941 0.142133 6.7519 0 7.24236 0C7.73281 0 8.16531 0.142133 8.53985 0.4264C8.9144 0.710666 9.16954 1.07362 9.30527 1.51527H12.7379C13.2183 1.51527 13.6295 1.68631 13.9716 2.02839C14.3137 2.37046 14.4847 2.78168 14.4847 3.26205V14.2532C14.4847 14.7336 14.3137 15.1448 13.9716 15.4869C13.6295 15.8289 13.2183 16 12.7379 16H1.74679ZM1.74679 14.2532H12.7379V3.26205H1.74679V14.2532ZM7.24236 2.73682C7.3999 2.73682 7.53018 2.68532 7.63319 2.58231C7.7362 2.4793 7.78771 2.34902 7.78771 2.19147C7.78771 2.03393 7.7362 1.90365 7.63319 1.80064C7.53018 1.69763 7.3999 1.64612 7.24236 1.64612C7.08481 1.64612 6.95454 1.69763 6.85153 1.80064C6.74852 1.90365 6.69701 2.03393 6.69701 2.19147C6.69701 2.34902 6.74852 2.4793 6.85153 2.58231C6.95454 2.68532 7.08481 2.73682 7.24236 2.73682Z" fill="#0073E6"/>
</g>
</svg>
