<svg width="14" height="16" viewBox="0 0 14 16" fill="none" xmlns="http://www.w3.org/2000/svg">
<mask id="mask0_0_905" style="mask-type:alpha" maskUnits="userSpaceOnUse" x="-3" y="-2" width="20" height="21">
<rect x="-3" y="-1.5" width="20" height="20" fill="#D9D9D9"/>
</mask>
<g mask="url(#mask0_0_905)">
<path d="M7.27813 12.1835C6.7316 12.7278 6.06944 12.9965 5.29167 12.9896C4.51389 12.9826 3.85417 12.7071 3.3125 12.1631C2.77083 11.6191 2.5 10.9628 2.5 10.1944C2.5 9.4259 2.77326 8.76951 3.31979 8.22521L6.72188 4.81646C7.2684 4.27215 7.93056 4.00347 8.70833 4.01042C9.48611 4.01736 10.1458 4.29285 10.6875 4.8369C11.2292 5.38094 11.5 6.03719 11.5 6.80565C11.5 7.5741 11.2267 8.23049 10.6802 8.77479L7.27813 12.1835ZM4.375 11.1042C4.73611 11.4653 5.10147 11.5945 5.47108 11.492C5.84069 11.3894 6.09339 11.267 6.22917 11.125L7.39583 9.95833L5.54167 8.125L4.375 9.29167C4.125 9.54167 4 9.84375 4 10.1979C4 10.5521 4.125 10.8542 4.375 11.1042ZM9.625 5.89583C9.26389 5.53472 8.90146 5.40546 8.53771 5.50804C8.17397 5.61064 7.92529 5.73296 7.79167 5.875L6.60417 7.04167L8.45833 8.89583L9.625 7.72917C9.875 7.47917 10 7.17361 10 6.8125C10 6.45139 9.875 6.14583 9.625 5.89583ZM1.5 15.5C1.0875 15.5 0.734375 15.3531 0.440625 15.0594C0.146875 14.7656 0 14.4125 0 14V3C0 2.5875 0.146875 2.23438 0.440625 1.94063C0.734375 1.64688 1.0875 1.5 1.5 1.5H5.0625C5.17361 1.06944 5.40625 0.711806 5.76042 0.427083C6.11458 0.142361 6.52778 0 7 0C7.47222 0 7.88542 0.142361 8.23958 0.427083C8.59375 0.711806 8.82639 1.06944 8.9375 1.5H12.5C12.9125 1.5 13.2656 1.64688 13.5594 1.94063C13.8531 2.23438 14 2.5875 14 3V14C14 14.4125 13.8531 14.7656 13.5594 15.0594C13.2656 15.3531 12.9125 15.5 12.5 15.5H1.5ZM1.5 14H12.5V3H1.5V14ZM7 2.5C7.14444 2.5 7.26389 2.45278 7.35833 2.35833C7.45278 2.26389 7.5 2.14444 7.5 2C7.5 1.85556 7.45278 1.73611 7.35833 1.64167C7.26389 1.54722 7.14444 1.5 7 1.5C6.85556 1.5 6.73611 1.54722 6.64167 1.64167C6.54722 1.73611 6.5 1.85556 6.5 2C6.5 2.14444 6.54722 2.26389 6.64167 2.35833C6.73611 2.45278 6.85556 2.5 7 2.5Z" fill="#1C4980"/>
</g>
</svg>
