<svg width="17" height="17" viewBox="0 0 17 17" fill="none" xmlns="http://www.w3.org/2000/svg">
<path d="M6.28999 14.9175C6.03499 14.45 5.81187 13.9648 5.62062 13.4619C5.42937 12.9589 5.26999 12.4383 5.14249 11.9H2.635C3.04583 12.6083 3.55937 13.2246 4.17562 13.7487C4.79187 14.2729 5.49666 14.6625 6.28999 14.9175ZM1.9125 10.2H4.80249C4.75999 9.91665 4.72812 9.63686 4.70687 9.36061C4.68562 9.08436 4.67499 8.79749 4.67499 8.49999C4.67499 8.20249 4.68562 7.91562 4.70687 7.63937C4.72812 7.36312 4.75999 7.08332 4.80249 6.79999H1.9125C1.84166 7.08332 1.78854 7.36312 1.75312 7.63937C1.71771 7.91562 1.7 8.20249 1.7 8.49999C1.7 8.79749 1.71771 9.08436 1.75312 9.36061C1.78854 9.63686 1.84166 9.91665 1.9125 10.2ZM2.635 5.09999H5.14249C5.26999 4.56166 5.42937 4.04104 5.62062 3.53812C5.81187 3.0352 6.03499 2.55 6.28999 2.0825C5.49666 2.3375 4.79187 2.72708 4.17562 3.25125C3.55937 3.77541 3.04583 4.39166 2.635 5.09999ZM6.88499 5.09999H10.115C9.94499 4.47666 9.7254 3.88875 9.45624 3.33625C9.18707 2.78375 8.86832 2.2525 8.49999 1.7425C8.13166 2.2525 7.81291 2.78375 7.54374 3.33625C7.27457 3.88875 7.05499 4.47666 6.88499 5.09999ZM11.8575 5.09999H14.365C13.9541 4.39166 13.4406 3.77541 12.8244 3.25125C12.2081 2.72708 11.5033 2.3375 10.71 2.0825C10.965 2.55 11.1881 3.0352 11.3794 3.53812C11.5706 4.04104 11.73 4.56166 11.8575 5.09999ZM8.49999 17C7.33832 17 6.24041 16.7769 5.20624 16.3306C4.17208 15.8844 3.26895 15.2752 2.49687 14.5031C1.72479 13.731 1.11562 12.8279 0.669374 11.7937C0.223125 10.7596 0 9.66165 0 8.49999C0 7.32416 0.223125 6.2227 0.669374 5.19562C1.11562 4.16854 1.72479 3.26895 2.49687 2.49687C3.26895 1.72479 4.17208 1.11562 5.20624 0.669374C6.24041 0.223125 7.33832 0 8.49999 0C9.67582 0 10.7773 0.223125 11.8044 0.669374C12.8314 1.11562 13.731 1.72479 14.5031 2.49687C15.2752 3.26895 15.8844 4.16854 16.3306 5.19562C16.7769 6.2227 17 7.32416 17 8.49999C17 8.64166 16.9964 8.78332 16.9894 8.92499C16.9823 9.06666 16.9716 9.20832 16.9575 9.34999H15.2362C15.2646 9.20832 15.2823 9.0702 15.2894 8.93561C15.2964 8.80103 15.3 8.65582 15.3 8.49999C15.3 8.20249 15.2823 7.91562 15.2469 7.63937C15.2114 7.36312 15.1583 7.08332 15.0875 6.79999H12.1975C12.24 7.08332 12.2719 7.36312 12.2931 7.63937C12.3144 7.91562 12.325 8.20249 12.325 8.49999V8.93561C12.325 9.0702 12.3179 9.20832 12.3037 9.34999H10.6037C10.6179 9.20832 10.625 9.0702 10.625 8.93561V8.49999C10.625 8.20249 10.6144 7.91562 10.5931 7.63937C10.5719 7.36312 10.54 7.08332 10.4975 6.79999H6.50249C6.45999 7.08332 6.42812 7.36312 6.40687 7.63937C6.38562 7.91562 6.37499 8.20249 6.37499 8.49999C6.37499 8.79749 6.38562 9.08436 6.40687 9.36061C6.42812 9.63686 6.45999 9.91665 6.50249 10.2H9.34999V11.9H6.88499C7.05499 12.5233 7.27457 13.1112 7.54374 13.6637C7.81291 14.2162 8.13166 14.7475 8.49999 15.2575C8.65582 15.0308 8.80457 14.8006 8.94624 14.5669C9.08791 14.3331 9.22249 14.0958 9.34999 13.855V16.9575C9.20832 16.9716 9.0702 16.9823 8.93561 16.9894C8.80103 16.9964 8.65582 17 8.49999 17ZM15.2575 16.4687L12.75 13.9612V15.8525H11.05V11.05H15.8525V12.75H13.94L16.4475 15.2575L15.2575 16.4687Z" fill="#E9407A"/>
</svg>
