<svg width="17" height="17" viewBox="0 0 17 17" fill="none" xmlns="http://www.w3.org/2000/svg">
<mask id="mask0_0_877" style="mask-type:alpha" maskUnits="userSpaceOnUse" x="-2" y="-2" width="21" height="21">
<rect x="-1.76078" y="-1.76075" width="20.5215" height="20.5215" fill="#D9D9D9"/>
</mask>
<g mask="url(#mask0_0_877)">
<path d="M10.172 10.8607C10.4143 10.8607 10.6174 10.7788 10.7813 10.6149C10.9452 10.451 11.0271 10.2479 11.0271 10.0057C11.0271 9.76339 10.9452 9.56031 10.7813 9.39643C10.6174 9.23254 10.4143 9.15059 10.172 9.15059C9.92977 9.15059 9.72669 9.23254 9.5628 9.39643C9.39891 9.56031 9.31697 9.76339 9.31697 10.0057C9.31697 10.2479 9.39891 10.451 9.5628 10.6149C9.72669 10.7788 9.92977 10.8607 10.172 10.8607ZM9.55211 8.33967H10.792C10.792 7.96729 10.8266 7.68862 10.8958 7.50366C10.965 7.3187 11.1177 7.11532 11.3538 6.8935C11.6496 6.61189 11.916 6.32687 12.1529 6.03844C12.3897 5.75001 12.5081 5.38831 12.5081 4.95334C12.5081 4.30523 12.2924 3.78693 11.8609 3.39843C11.4295 3.00993 10.8612 2.81568 10.1561 2.81568C9.61155 2.81568 9.1255 2.96803 8.69797 3.27271C8.27043 3.57742 7.97287 3.99602 7.80526 4.52852L8.91684 4.99099C9.01319 4.67002 9.17181 4.42318 9.39271 4.25046C9.6136 4.07775 9.8681 3.99139 10.1562 3.99139C10.4893 3.99139 10.7579 4.08317 10.962 4.26673C11.1662 4.45029 11.2683 4.68831 11.2683 4.98077C11.2683 5.28168 11.1578 5.54332 10.9369 5.76567C10.716 5.98803 10.4845 6.21434 10.2422 6.4446C9.94912 6.71598 9.76083 6.97265 9.67734 7.21462C9.59385 7.45658 9.55211 7.83159 9.55211 8.33967ZM5.08765 13.6866C4.59623 13.6866 4.17766 13.5138 3.83195 13.168C3.48625 12.8223 3.31339 12.4038 3.31339 11.9123V1.77428C3.31339 1.28286 3.48625 0.864291 3.83195 0.518574C4.17766 0.172858 4.59623 0 5.08765 0H15.2257C15.7171 0 16.1357 0.172858 16.4814 0.518574C16.8271 0.864291 17 1.28286 17 1.77428V11.9123C17 12.4038 16.8271 12.8223 16.4814 13.168C16.1357 13.5138 15.7171 13.6866 15.2257 13.6866H5.08765ZM5.08765 11.9123H15.2257V1.77428H5.08765V11.9123ZM1.77428 17C1.28286 17 0.864291 16.8271 0.518575 16.4814C0.172858 16.1357 0 15.7171 0 15.2257V3.31339H1.77428V15.2257H13.6866V17H1.77428Z" fill="#1C4980"/>
</g>
</svg>
