<svg width="19" height="14" viewBox="0 0 19 14" fill="none" xmlns="http://www.w3.org/2000/svg">
<path d="M0 14V11.4585C0 10.9497 0.131643 10.482 0.39493 10.0554C0.65823 9.62882 1.00803 9.30329 1.44433 9.07879C2.32539 8.63995 3.2221 8.30997 4.13446 8.08887C5.04683 7.86777 5.97345 7.75722 6.91433 7.75722C7.86165 7.75722 8.79157 7.86693 9.70408 8.08635C10.6166 8.30577 11.51 8.63491 12.3843 9.07375C12.8206 9.29778 13.1704 9.6226 13.4337 10.0482C13.697 10.4739 13.8287 10.9439 13.8287 11.4583V14H0ZM15.59 14V11.3051C15.59 10.6735 15.4196 10.0649 15.0788 9.47916C14.738 8.89343 14.2464 8.37167 13.6042 7.91389C14.2837 8.0049 14.9261 8.14972 15.5314 8.34838C16.1367 8.54703 16.7065 8.78882 17.241 9.07375C17.7601 9.35471 18.159 9.68627 18.4377 10.0684C18.7164 10.4506 18.8557 10.8679 18.8557 11.3202V14H15.59ZM6.91433 6.91435C5.96029 6.91435 5.14558 6.57666 4.47022 5.90129C3.79485 5.22591 3.45716 4.4112 3.45716 3.45716C3.45716 2.50313 3.79485 1.68842 4.47022 1.01305C5.14558 0.337684 5.96029 0 6.91433 0C7.86836 0 8.68307 0.337684 9.35846 1.01305C10.0338 1.68842 10.3715 2.50313 10.3715 3.45716C10.3715 4.4112 10.0338 5.22591 9.35846 5.90129C8.68307 6.57666 7.86836 6.91435 6.91433 6.91435ZM15.59 3.45712C15.59 4.40783 15.2516 5.22171 14.5747 5.89877C13.8978 6.57582 13.0841 6.91435 12.1336 6.91435C11.9752 6.91435 11.7783 6.89594 11.5428 6.85914C11.3074 6.82235 11.1057 6.77951 10.9377 6.73064C11.3237 6.27439 11.6194 5.76586 11.8248 5.20506C12.0302 4.64425 12.1328 4.06187 12.1328 3.45792C12.1328 2.85397 12.0302 2.27134 11.8248 1.71003C11.6194 1.14873 11.3237 0.639946 10.9377 0.183683C11.1377 0.110086 11.3361 0.0610737 11.5327 0.0366443C11.7294 0.012215 11.9287 0 12.1305 0C13.0818 0 13.8963 0.338513 14.5738 1.01554C15.2513 1.69255 15.59 2.50641 15.59 3.45712ZM1.91754 12.0825H11.9111V11.4837C11.9111 11.3325 11.8725 11.195 11.7952 11.0712C11.718 10.9474 11.6161 10.8512 11.4897 10.7824C10.7513 10.4166 10.0008 10.1405 9.2382 9.9542C8.47564 9.76791 7.70101 9.67477 6.91433 9.67477C6.13437 9.67477 5.35975 9.76791 4.59047 9.9542C3.82119 10.1405 3.0707 10.4166 2.33898 10.7824C2.21255 10.8512 2.1107 10.9474 2.03344 11.0712C1.95618 11.195 1.91754 11.3325 1.91754 11.4837V12.0825ZM6.91353 5.07237C7.3575 5.07237 7.73782 4.91429 8.05451 4.59814C8.3712 4.28199 8.52955 3.90193 8.52955 3.45796C8.52955 3.01401 8.37147 2.63369 8.05531 2.317C7.73916 2.00031 7.3591 1.84196 6.91513 1.84196C6.47117 1.84196 6.09085 2.00004 5.77417 2.3162C5.45747 2.63235 5.29912 3.0124 5.29912 3.45636C5.29912 3.90033 5.4572 4.28066 5.77337 4.59734C6.08952 4.91403 6.46957 5.07237 6.91353 5.07237Z" fill="#6548EE"/>
</svg>
