<svg width="18" height="9" viewBox="0 0 18 9" fill="none" xmlns="http://www.w3.org/2000/svg">
<path d="M7.88181 9.00001H4.5C3.25501 9.00001 2.19376 8.56129 1.31627 7.68387C0.438755 6.80645 0 5.74529 0 4.50041C0 3.25552 0.438755 2.19423 1.31627 1.31655C2.19376 0.438848 3.25501 0 4.5 0H7.88181V1.96753H4.50221C3.79813 1.96753 3.19967 2.21375 2.70682 2.70617C2.21396 3.1986 1.96753 3.79654 1.96753 4.5C1.96753 5.20346 2.21396 5.80141 2.70682 6.29383C3.19967 6.78626 3.79813 7.03247 4.50221 7.03247H7.88181V9.00001ZM5.24593 5.4062V3.5938H12.4025V5.4062H5.24593ZM9.7666 9.00001V7.03247H13.1462C13.8503 7.03247 14.4487 6.78626 14.9416 6.29383C15.4344 5.80141 15.6809 5.20346 15.6809 4.5C15.6809 3.79654 15.4344 3.1986 14.9416 2.70617C14.4487 2.21375 13.8503 1.96753 13.1462 1.96753H9.7666V0H13.1484C14.3934 0 15.4547 0.438712 16.3321 1.31614C17.2097 2.19356 17.6484 3.25471 17.6484 4.49959C17.6484 5.74449 17.2097 6.80578 16.3321 7.68346C15.4547 8.56116 14.3934 9.00001 13.1484 9.00001H9.7666Z" fill="#0073E6"/>
</svg>
